<mxfile host="Electron" agent="Mozilla/5.0 (Windows NT 10.0; Win64; x64) AppleWebKit/537.36 (KHTML, like Gecko) draw.io/26.2.2 Chrome/134.0.6998.178 Electron/35.1.2 Safari/537.36" version="26.2.2">
  <diagram name="use-cases" id="50c5_WhuDZ5GK7heBTsZ">
    <mxGraphModel dx="83866" dy="117507" grid="1" gridSize="10" guides="1" tooltips="1" connect="1" arrows="1" fold="1" page="1" pageScale="100" pageWidth="827" pageHeight="1169" math="0" shadow="0">
      <root>
        <object label="" Χρήστης="" id="0">
          <mxCell />
        </object>
        <mxCell id="1" parent="0" />
        <mxCell id="SlFlDC7onq-lnfKXw3GX-15" value="" style="rounded=0;whiteSpace=wrap;html=1;" parent="1" vertex="1">
          <mxGeometry x="-970" y="-750" width="2520" height="2880" as="geometry" />
        </mxCell>
        <object label="Actor" Χρήστης="" id="HnD6LduY7zY77JEL5Ho--6">
          <mxCell style="shape=umlActor;verticalLabelPosition=bottom;verticalAlign=top;html=1;strokeColor=light-dark(#000000,#FFFFFF);fontSize=1;" parent="1" vertex="1">
            <mxGeometry x="-1190" y="850" width="40" height="90" as="geometry" />
          </mxCell>
        </object>
        <mxCell id="5ojVr-R2FoughXSiMXYQ-4" value="&lt;div&gt;Χρήστης&lt;/div&gt;&lt;div&gt;&lt;br&gt;&lt;/div&gt;" style="text;html=1;align=center;verticalAlign=middle;whiteSpace=wrap;rounded=0;" parent="1" vertex="1">
          <mxGeometry x="-1200" y="950" width="60" height="30" as="geometry" />
        </mxCell>
        <mxCell id="5ojVr-R2FoughXSiMXYQ-14" value="Δημιουργία αναφοράς περιβαλλοντικού-κοινωνικού περιστατικού" style="ellipse;whiteSpace=wrap;html=1;" parent="1" vertex="1">
          <mxGeometry x="-100" y="80" width="150" height="90" as="geometry" />
        </mxCell>
        <mxCell id="5ojVr-R2FoughXSiMXYQ-15" value="Λήψη φωτογραφίας" style="ellipse;whiteSpace=wrap;html=1;" parent="1" vertex="1">
          <mxGeometry x="670" y="-56" width="140" height="70" as="geometry" />
        </mxCell>
        <mxCell id="5ojVr-R2FoughXSiMXYQ-29" value="Συμπλήρωση φόρμας δημιουργίας αναφοράς" style="ellipse;whiteSpace=wrap;html=1;" parent="1" vertex="1">
          <mxGeometry x="215" y="14" width="150" height="70" as="geometry" />
        </mxCell>
        <mxCell id="5ojVr-R2FoughXSiMXYQ-43" value="Actor" style="shape=umlActor;verticalLabelPosition=bottom;verticalAlign=top;html=1;fontSize=1;" parent="1" vertex="1">
          <mxGeometry x="1670" y="406" width="40" height="70" as="geometry" />
        </mxCell>
        <mxCell id="5ojVr-R2FoughXSiMXYQ-44" value="Βάση δεδομένων" style="text;align=center;fontStyle=1;verticalAlign=middle;spacingLeft=3;spacingRight=3;strokeColor=none;rotatable=0;points=[[0,0.5],[1,0.5]];portConstraint=eastwest;html=1;" parent="1" vertex="1">
          <mxGeometry x="1670" y="484" width="80" height="26" as="geometry" />
        </mxCell>
        <mxCell id="5ojVr-R2FoughXSiMXYQ-46" value="&amp;nbsp;στοιχεία της αναφοράς περιστατικού&amp;nbsp;" style="ellipse;whiteSpace=wrap;html=1;" parent="1" vertex="1">
          <mxGeometry x="520" y="290" width="140" height="70" as="geometry" />
        </mxCell>
        <mxCell id="5ojVr-R2FoughXSiMXYQ-60" value="Επιβεβαίωση και υποβολή αναφοράς" style="ellipse;whiteSpace=wrap;html=1;" parent="1" vertex="1">
          <mxGeometry x="225" y="195" width="140" height="70" as="geometry" />
        </mxCell>
        <mxCell id="5ojVr-R2FoughXSiMXYQ-79" value="" style="endArrow=none;html=1;rounded=0;exitX=0;exitY=0;exitDx=0;exitDy=0;" parent="1" source="5ojVr-R2FoughXSiMXYQ-80" target="HnD6LduY7zY77JEL5Ho--6" edge="1">
          <mxGeometry width="50" height="50" relative="1" as="geometry">
            <mxPoint x="110" y="370" as="sourcePoint" />
            <mxPoint x="160" y="320" as="targetPoint" />
          </mxGeometry>
        </mxCell>
        <mxCell id="5ojVr-R2FoughXSiMXYQ-80" value="Προβολή στατιστικών" style="ellipse;whiteSpace=wrap;html=1;" parent="1" vertex="1">
          <mxGeometry x="-280" y="384" width="140" height="70" as="geometry" />
        </mxCell>
        <mxCell id="5ojVr-R2FoughXSiMXYQ-82" value="Εμφάνιση κατηγορίας στατιστικών δεδομένων, φίλτρων και μορφές διαγραμμάτων" style="ellipse;whiteSpace=wrap;html=1;" parent="1" vertex="1">
          <mxGeometry y="245" width="160" height="80" as="geometry" />
        </mxCell>
        <mxCell id="5ojVr-R2FoughXSiMXYQ-84" value="Aνάκτηση στατιστικών δεδομένων" style="ellipse;whiteSpace=wrap;html=1;" parent="1" vertex="1">
          <mxGeometry x="670" y="410" width="140" height="70" as="geometry" />
        </mxCell>
        <mxCell id="5ojVr-R2FoughXSiMXYQ-88" value="Εμφάνιση διαγράμματος" style="ellipse;whiteSpace=wrap;html=1;" parent="1" vertex="1">
          <mxGeometry x="312" y="380" width="156" height="74" as="geometry" />
        </mxCell>
        <mxCell id="5ojVr-R2FoughXSiMXYQ-109" value="Προειδοποίηση έλλειψης δεδομένων για επιλεγμένα φίλτρα" style="ellipse;whiteSpace=wrap;html=1;" parent="1" vertex="1">
          <mxGeometry x="60" y="510" width="150" height="80" as="geometry" />
        </mxCell>
        <object label="Actor" Χρήστης="" id="xumEokUSWQcuNdWC_lMM-1">
          <mxCell style="shape=umlActor;verticalLabelPosition=bottom;verticalAlign=top;html=1;strokeColor=light-dark(#000000,#FFFFFF);fontSize=1;" parent="1" vertex="1">
            <mxGeometry x="1660" y="123" width="40" height="90" as="geometry" />
          </mxCell>
        </object>
        <mxCell id="xumEokUSWQcuNdWC_lMM-2" value="κάμερα" style="text;html=1;align=center;verticalAlign=middle;resizable=0;points=[];autosize=1;strokeColor=none;fillColor=none;" parent="1" vertex="1">
          <mxGeometry x="1650" y="215" width="60" height="30" as="geometry" />
        </mxCell>
        <mxCell id="xumEokUSWQcuNdWC_lMM-4" value="" style="endArrow=none;html=1;rounded=0;exitX=0.475;exitY=0.733;exitDx=0;exitDy=0;exitPerimeter=0;entryX=1;entryY=0.5;entryDx=0;entryDy=0;" parent="1" source="xumEokUSWQcuNdWC_lMM-1" target="xumEokUSWQcuNdWC_lMM-7" edge="1">
          <mxGeometry width="50" height="50" relative="1" as="geometry">
            <mxPoint x="980" y="-28.069999999999993" as="sourcePoint" />
            <mxPoint x="790" y="94.07285714285712" as="targetPoint" />
            <Array as="points" />
          </mxGeometry>
        </mxCell>
        <mxCell id="xumEokUSWQcuNdWC_lMM-5" value="&amp;lt;&amp;lt;include&amp;gt;&amp;gt;" style="html=1;verticalAlign=bottom;labelBackgroundColor=none;endArrow=open;endFill=0;dashed=1;rounded=0;" parent="1" source="5ojVr-R2FoughXSiMXYQ-14" target="5ojVr-R2FoughXSiMXYQ-29" edge="1">
          <mxGeometry width="160" relative="1" as="geometry">
            <mxPoint x="400" y="10" as="sourcePoint" />
            <mxPoint x="560" y="10" as="targetPoint" />
          </mxGeometry>
        </mxCell>
        <mxCell id="xumEokUSWQcuNdWC_lMM-7" value="Άδεια πρόσβασης" style="ellipse;whiteSpace=wrap;html=1;" parent="1" vertex="1">
          <mxGeometry x="820" y="133" width="140" height="70" as="geometry" />
        </mxCell>
        <mxCell id="xumEokUSWQcuNdWC_lMM-8" value="&amp;lt;&amp;lt;include&amp;gt;&amp;gt;" style="html=1;verticalAlign=bottom;labelBackgroundColor=none;endArrow=open;endFill=0;dashed=1;rounded=0;entryX=0.021;entryY=0.386;entryDx=0;entryDy=0;entryPerimeter=0;" parent="1" source="5ojVr-R2FoughXSiMXYQ-15" target="xumEokUSWQcuNdWC_lMM-7" edge="1">
          <mxGeometry width="160" relative="1" as="geometry">
            <mxPoint x="401" y="64" as="sourcePoint" />
            <mxPoint x="552" y="17" as="targetPoint" />
          </mxGeometry>
        </mxCell>
        <mxCell id="xumEokUSWQcuNdWC_lMM-9" value="" style="endArrow=none;html=1;rounded=0;" parent="1" source="5ojVr-R2FoughXSiMXYQ-14" target="HnD6LduY7zY77JEL5Ho--6" edge="1">
          <mxGeometry width="50" height="50" relative="1" as="geometry">
            <mxPoint x="1139" y="46" as="sourcePoint" />
            <mxPoint x="1000" y="-25" as="targetPoint" />
            <Array as="points" />
          </mxGeometry>
        </mxCell>
        <mxCell id="xumEokUSWQcuNdWC_lMM-10" value="&amp;lt;&amp;lt;include&amp;gt;&amp;gt;" style="html=1;verticalAlign=bottom;labelBackgroundColor=none;endArrow=open;endFill=0;dashed=1;rounded=0;" parent="1" source="5ojVr-R2FoughXSiMXYQ-29" target="5ojVr-R2FoughXSiMXYQ-15" edge="1">
          <mxGeometry width="160" relative="1" as="geometry">
            <mxPoint x="719" y="-72" as="sourcePoint" />
            <mxPoint x="863" y="-33" as="targetPoint" />
          </mxGeometry>
        </mxCell>
        <mxCell id="xumEokUSWQcuNdWC_lMM-12" value="Σχόλια περιστατικού" style="ellipse;whiteSpace=wrap;html=1;" parent="1" vertex="1">
          <mxGeometry x="590" y="70" width="140" height="70" as="geometry" />
        </mxCell>
        <mxCell id="xumEokUSWQcuNdWC_lMM-13" value="&amp;lt;&amp;lt;include&amp;gt;&amp;gt;" style="html=1;verticalAlign=bottom;labelBackgroundColor=none;endArrow=open;endFill=0;dashed=1;rounded=0;entryX=0;entryY=0.5;entryDx=0;entryDy=0;exitX=1.007;exitY=0.643;exitDx=0;exitDy=0;exitPerimeter=0;" parent="1" source="5ojVr-R2FoughXSiMXYQ-29" target="xumEokUSWQcuNdWC_lMM-12" edge="1">
          <mxGeometry width="160" relative="1" as="geometry">
            <mxPoint x="361" y="43" as="sourcePoint" />
            <mxPoint x="444" y="15" as="targetPoint" />
          </mxGeometry>
        </mxCell>
        <mxCell id="xumEokUSWQcuNdWC_lMM-14" value="Τοποθεσία περιστατικού" style="ellipse;whiteSpace=wrap;html=1;" parent="1" vertex="1">
          <mxGeometry x="630" y="207" width="140" height="70" as="geometry" />
        </mxCell>
        <mxCell id="xumEokUSWQcuNdWC_lMM-15" value="&amp;lt;&amp;lt;include&amp;gt;&amp;gt;" style="html=1;verticalAlign=bottom;labelBackgroundColor=none;endArrow=open;endFill=0;dashed=1;rounded=0;exitX=0.64;exitY=0.957;exitDx=0;exitDy=0;exitPerimeter=0;" parent="1" source="5ojVr-R2FoughXSiMXYQ-29" target="xumEokUSWQcuNdWC_lMM-14" edge="1">
          <mxGeometry width="160" relative="1" as="geometry">
            <mxPoint x="527" y="29" as="sourcePoint" />
            <mxPoint x="650" y="25" as="targetPoint" />
          </mxGeometry>
        </mxCell>
        <mxCell id="xumEokUSWQcuNdWC_lMM-18" value="" style="endArrow=none;html=1;rounded=0;exitX=0.54;exitY=0.796;exitDx=0;exitDy=0;exitPerimeter=0;" parent="1" source="5ojVr-R2FoughXSiMXYQ-43" target="5ojVr-R2FoughXSiMXYQ-46" edge="1">
          <mxGeometry width="50" height="50" relative="1" as="geometry">
            <mxPoint x="1139" y="46" as="sourcePoint" />
            <mxPoint x="1040" y="-55" as="targetPoint" />
            <Array as="points" />
          </mxGeometry>
        </mxCell>
        <mxCell id="xumEokUSWQcuNdWC_lMM-19" value="&amp;lt;&amp;lt;include&amp;gt;&amp;gt;" style="html=1;verticalAlign=bottom;labelBackgroundColor=none;endArrow=open;endFill=0;dashed=1;rounded=0;exitX=0.96;exitY=0.644;exitDx=0;exitDy=0;exitPerimeter=0;entryX=0.057;entryY=0.3;entryDx=0;entryDy=0;entryPerimeter=0;" parent="1" source="5ojVr-R2FoughXSiMXYQ-14" target="5ojVr-R2FoughXSiMXYQ-60" edge="1">
          <mxGeometry width="160" relative="1" as="geometry">
            <mxPoint x="361" y="43" as="sourcePoint" />
            <mxPoint x="444" y="15" as="targetPoint" />
          </mxGeometry>
        </mxCell>
        <mxCell id="xumEokUSWQcuNdWC_lMM-20" value="&amp;lt;&amp;lt;include&amp;gt;&amp;gt;" style="html=1;verticalAlign=bottom;labelBackgroundColor=none;endArrow=open;endFill=0;dashed=1;rounded=0;exitX=0.393;exitY=1.043;exitDx=0;exitDy=0;exitPerimeter=0;" parent="1" source="5ojVr-R2FoughXSiMXYQ-29" target="5ojVr-R2FoughXSiMXYQ-46" edge="1">
          <mxGeometry width="160" relative="1" as="geometry">
            <mxPoint x="361" y="43" as="sourcePoint" />
            <mxPoint x="444" y="15" as="targetPoint" />
          </mxGeometry>
        </mxCell>
        <mxCell id="xumEokUSWQcuNdWC_lMM-24" value="Δεν συμπληρώθηκαν όλα τα πεδία της φόρμας" style="ellipse;whiteSpace=wrap;html=1;" parent="1" vertex="1">
          <mxGeometry x="440" y="-140" width="150" height="70" as="geometry" />
        </mxCell>
        <mxCell id="xumEokUSWQcuNdWC_lMM-25" value="&amp;lt;&amp;lt;extend&amp;gt;&amp;gt;" style="html=1;verticalAlign=bottom;labelBackgroundColor=none;endArrow=open;endFill=0;dashed=1;rounded=0;" parent="1" source="5ojVr-R2FoughXSiMXYQ-29" target="xumEokUSWQcuNdWC_lMM-24" edge="1">
          <mxGeometry width="160" relative="1" as="geometry">
            <mxPoint x="260" y="-30" as="sourcePoint" />
            <mxPoint x="420" y="-30" as="targetPoint" />
          </mxGeometry>
        </mxCell>
        <mxCell id="xumEokUSWQcuNdWC_lMM-26" value="Δεν επιτρέπει την πρόσβαση" style="ellipse;whiteSpace=wrap;html=1;" parent="1" vertex="1">
          <mxGeometry x="1070" y="267.5" width="150" height="70" as="geometry" />
        </mxCell>
        <mxCell id="xumEokUSWQcuNdWC_lMM-27" value="&amp;lt;&amp;lt;extend&amp;gt;&amp;gt;" style="html=1;verticalAlign=bottom;labelBackgroundColor=none;endArrow=open;endFill=0;dashed=1;rounded=0;" parent="1" source="xumEokUSWQcuNdWC_lMM-7" target="xumEokUSWQcuNdWC_lMM-26" edge="1">
          <mxGeometry width="160" relative="1" as="geometry">
            <mxPoint x="463" y="-36" as="sourcePoint" />
            <mxPoint x="351" y="-56" as="targetPoint" />
          </mxGeometry>
        </mxCell>
        <mxCell id="xumEokUSWQcuNdWC_lMM-28" value="" style="endArrow=none;html=1;rounded=0;" parent="1" target="5ojVr-R2FoughXSiMXYQ-84" edge="1">
          <mxGeometry width="50" height="50" relative="1" as="geometry">
            <mxPoint x="1700" y="445" as="sourcePoint" />
            <mxPoint x="998" y="323" as="targetPoint" />
            <Array as="points" />
          </mxGeometry>
        </mxCell>
        <mxCell id="xumEokUSWQcuNdWC_lMM-29" value="&amp;lt;&amp;lt;include&amp;gt;&amp;gt;" style="html=1;verticalAlign=bottom;labelBackgroundColor=none;endArrow=open;endFill=0;dashed=1;rounded=0;entryX=0.107;entryY=0.2;entryDx=0;entryDy=0;entryPerimeter=0;exitX=0.978;exitY=0.405;exitDx=0;exitDy=0;exitPerimeter=0;" parent="1" source="5ojVr-R2FoughXSiMXYQ-88" target="5ojVr-R2FoughXSiMXYQ-84" edge="1">
          <mxGeometry width="160" relative="1" as="geometry">
            <mxPoint x="364" y="78" as="sourcePoint" />
            <mxPoint x="530" y="231" as="targetPoint" />
          </mxGeometry>
        </mxCell>
        <mxCell id="xumEokUSWQcuNdWC_lMM-30" value="&amp;lt;&amp;lt;include&amp;gt;&amp;gt;" style="html=1;verticalAlign=bottom;labelBackgroundColor=none;endArrow=open;endFill=0;dashed=1;rounded=0;" parent="1" source="5ojVr-R2FoughXSiMXYQ-80" target="5ojVr-R2FoughXSiMXYQ-82" edge="1">
          <mxGeometry width="160" relative="1" as="geometry">
            <mxPoint x="385" y="342" as="sourcePoint" />
            <mxPoint x="835" y="434" as="targetPoint" />
          </mxGeometry>
        </mxCell>
        <mxCell id="xumEokUSWQcuNdWC_lMM-31" value="&amp;lt;&amp;lt;include&amp;gt;&amp;gt;" style="html=1;verticalAlign=bottom;labelBackgroundColor=none;endArrow=open;endFill=0;dashed=1;rounded=0;exitX=0.7;exitY=0.929;exitDx=0;exitDy=0;exitPerimeter=0;entryX=0.074;entryY=0.297;entryDx=0;entryDy=0;entryPerimeter=0;" parent="1" source="5ojVr-R2FoughXSiMXYQ-80" target="5ojVr-R2FoughXSiMXYQ-88" edge="1">
          <mxGeometry width="160" relative="1" as="geometry">
            <mxPoint x="347.94000000000005" y="371.99" as="sourcePoint" />
            <mxPoint x="505.7926367610826" y="468.862806724625" as="targetPoint" />
          </mxGeometry>
        </mxCell>
        <mxCell id="xumEokUSWQcuNdWC_lMM-34" value="&amp;lt;&amp;lt;extend&amp;gt;&amp;gt;" style="html=1;verticalAlign=bottom;labelBackgroundColor=none;endArrow=open;endFill=0;dashed=1;rounded=0;entryX=0.429;entryY=1.014;entryDx=0;entryDy=0;entryPerimeter=0;" parent="1" source="5ojVr-R2FoughXSiMXYQ-109" target="5ojVr-R2FoughXSiMXYQ-80" edge="1">
          <mxGeometry width="160" relative="1" as="geometry">
            <mxPoint x="463" y="-36" as="sourcePoint" />
            <mxPoint x="351" y="-56" as="targetPoint" />
          </mxGeometry>
        </mxCell>
        <mxCell id="ozAexrnUwDYbTWN0_t9B-1" value="Λήψη Δεδομένων καιρού&lt;div&gt;&lt;br&gt;&lt;/div&gt;" style="ellipse;whiteSpace=wrap;html=1;" parent="1" vertex="1">
          <mxGeometry x="1350" y="1129.5" width="158" height="83" as="geometry" />
        </mxCell>
        <mxCell id="ozAexrnUwDYbTWN0_t9B-2" value="Αποστολή&amp;nbsp; Τρόπων Προστασίας&amp;nbsp;&amp;nbsp;&lt;div&gt;&lt;br&gt;&lt;/div&gt;" style="ellipse;whiteSpace=wrap;html=1;" parent="1" vertex="1">
          <mxGeometry x="1160" y="1302" width="127" height="84" as="geometry" />
        </mxCell>
        <mxCell id="ozAexrnUwDYbTWN0_t9B-3" value="ΕΜΥ" style="shape=umlActor;verticalLabelPosition=bottom;verticalAlign=top;html=1;" parent="1" vertex="1">
          <mxGeometry x="1700" y="866" width="58" height="110" as="geometry" />
        </mxCell>
        <mxCell id="ozAexrnUwDYbTWN0_t9B-4" value="" style="endArrow=none;startArrow=none;endFill=0;startFill=0;endSize=8;html=1;verticalAlign=bottom;labelBackgroundColor=none;strokeWidth=3;rounded=0;fontSize=12;curved=1;exitX=1;exitY=0.5;exitDx=0;exitDy=0;" parent="1" source="ozAexrnUwDYbTWN0_t9B-1" target="ozAexrnUwDYbTWN0_t9B-3" edge="1">
          <mxGeometry width="160" relative="1" as="geometry">
            <mxPoint x="1870" y="1268" as="sourcePoint" />
            <mxPoint x="2030" y="1268" as="targetPoint" />
          </mxGeometry>
        </mxCell>
        <mxCell id="ozAexrnUwDYbTWN0_t9B-5" value="Ανακτά και Αναλύει τα δεδομένα&amp;nbsp;" style="ellipse;whiteSpace=wrap;html=1;" parent="1" vertex="1">
          <mxGeometry x="1190" y="966" width="140" height="70" as="geometry" />
        </mxCell>
        <mxCell id="ozAexrnUwDYbTWN0_t9B-7" value="Ανίχνευση έντονων καιρικών φαινομένων" style="ellipse;whiteSpace=wrap;html=1;" parent="1" vertex="1">
          <mxGeometry x="980" y="1136" width="140" height="70" as="geometry" />
        </mxCell>
        <mxCell id="ozAexrnUwDYbTWN0_t9B-8" value="Αποστολή push-up notification" style="ellipse;whiteSpace=wrap;html=1;" parent="1" vertex="1">
          <mxGeometry x="1000" y="1450" width="140" height="70" as="geometry" />
        </mxCell>
        <mxCell id="ozAexrnUwDYbTWN0_t9B-9" value="&amp;lt;&amp;lt;include&amp;gt;&amp;gt;" style="html=1;verticalAlign=bottom;labelBackgroundColor=none;endArrow=open;endFill=0;dashed=1;rounded=0;entryX=0.5;entryY=0;entryDx=0;entryDy=0;" parent="1" source="ozAexrnUwDYbTWN0_t9B-5" target="ozAexrnUwDYbTWN0_t9B-7" edge="1">
          <mxGeometry width="160" relative="1" as="geometry">
            <mxPoint x="1814" y="1135" as="sourcePoint" />
            <mxPoint x="1828" y="1280" as="targetPoint" />
          </mxGeometry>
        </mxCell>
        <mxCell id="ozAexrnUwDYbTWN0_t9B-10" value="Αξιολογεί το ποσοστό κινδύνου&amp;nbsp;" style="ellipse;whiteSpace=wrap;html=1;" parent="1" vertex="1">
          <mxGeometry x="810" y="1303" width="140" height="70" as="geometry" />
        </mxCell>
        <mxCell id="ozAexrnUwDYbTWN0_t9B-11" value="&amp;lt;&amp;lt;include&amp;gt;&amp;gt;" style="html=1;verticalAlign=bottom;labelBackgroundColor=none;endArrow=open;endFill=0;dashed=1;rounded=0;exitX=0.5;exitY=1;exitDx=0;exitDy=0;entryX=0.5;entryY=0;entryDx=0;entryDy=0;" parent="1" source="ozAexrnUwDYbTWN0_t9B-7" target="ozAexrnUwDYbTWN0_t9B-10" edge="1">
          <mxGeometry width="160" relative="1" as="geometry">
            <mxPoint x="1781" y="1375" as="sourcePoint" />
            <mxPoint x="1941" y="1375" as="targetPoint" />
          </mxGeometry>
        </mxCell>
        <mxCell id="ozAexrnUwDYbTWN0_t9B-12" value="&amp;lt;&amp;lt;include&amp;gt;&amp;gt;" style="html=1;verticalAlign=bottom;labelBackgroundColor=none;endArrow=open;endFill=0;dashed=1;rounded=0;exitX=0.5;exitY=1;exitDx=0;exitDy=0;" parent="1" source="ozAexrnUwDYbTWN0_t9B-10" target="ozAexrnUwDYbTWN0_t9B-8" edge="1">
          <mxGeometry width="160" relative="1" as="geometry">
            <mxPoint x="1781" y="1375" as="sourcePoint" />
            <mxPoint x="1941" y="1375" as="targetPoint" />
          </mxGeometry>
        </mxCell>
        <mxCell id="ozAexrnUwDYbTWN0_t9B-13" value="&amp;lt;&amp;lt;include&amp;gt;&amp;gt;" style="html=1;verticalAlign=bottom;labelBackgroundColor=none;endArrow=open;endFill=0;dashed=1;rounded=0;exitX=1;exitY=0.5;exitDx=0;exitDy=0;entryX=0;entryY=0.5;entryDx=0;entryDy=0;" parent="1" source="ozAexrnUwDYbTWN0_t9B-10" target="ozAexrnUwDYbTWN0_t9B-2" edge="1">
          <mxGeometry width="160" relative="1" as="geometry">
            <mxPoint x="1781" y="1375" as="sourcePoint" />
            <mxPoint x="2007" y="1433" as="targetPoint" />
          </mxGeometry>
        </mxCell>
        <mxCell id="ozAexrnUwDYbTWN0_t9B-14" value="&amp;lt;&amp;lt;include&amp;gt;&amp;gt;" style="html=1;verticalAlign=bottom;labelBackgroundColor=none;endArrow=open;endFill=0;dashed=1;rounded=0;exitX=0;exitY=0.5;exitDx=0;exitDy=0;entryX=0.961;entryY=0.394;entryDx=0;entryDy=0;entryPerimeter=0;" parent="1" source="ozAexrnUwDYbTWN0_t9B-1" target="ozAexrnUwDYbTWN0_t9B-5" edge="1">
          <mxGeometry width="160" relative="1" as="geometry">
            <mxPoint x="1781" y="943" as="sourcePoint" />
            <mxPoint x="1941" y="943" as="targetPoint" />
          </mxGeometry>
        </mxCell>
        <mxCell id="ozAexrnUwDYbTWN0_t9B-17" value="Δωρέα&amp;nbsp;" style="ellipse;whiteSpace=wrap;html=1;" parent="1" vertex="1">
          <mxGeometry x="-130" y="580" width="140" height="70" as="geometry" />
        </mxCell>
        <mxCell id="ozAexrnUwDYbTWN0_t9B-19" value="Εμφάνιση όλων των διαθέσιμων κοινωνικών δρασέων-οργανισμών" style="ellipse;whiteSpace=wrap;html=1;" parent="1" vertex="1">
          <mxGeometry x="320" y="660" width="140" height="70" as="geometry" />
        </mxCell>
        <mxCell id="ozAexrnUwDYbTWN0_t9B-20" value="&amp;lt;&amp;lt;include&amp;gt;&amp;gt;" style="html=1;verticalAlign=bottom;labelBackgroundColor=none;endArrow=open;endFill=0;dashed=1;rounded=0;exitX=0.5;exitY=1;exitDx=0;exitDy=0;" parent="1" source="ozAexrnUwDYbTWN0_t9B-17" target="ozAexrnUwDYbTWN0_t9B-19" edge="1">
          <mxGeometry width="160" relative="1" as="geometry">
            <mxPoint x="1628" y="1039" as="sourcePoint" />
            <mxPoint x="1788" y="1039" as="targetPoint" />
          </mxGeometry>
        </mxCell>
        <mxCell id="ozAexrnUwDYbTWN0_t9B-22" value="&amp;lt;&amp;lt;include&amp;gt;&amp;gt;" style="html=1;verticalAlign=bottom;labelBackgroundColor=none;endArrow=open;endFill=0;dashed=1;rounded=0;entryX=1;entryY=0;entryDx=0;entryDy=0;exitX=0.294;exitY=0.356;exitDx=0;exitDy=0;exitPerimeter=0;" parent="1" source="5ojVr-R2FoughXSiMXYQ-43" target="ozAexrnUwDYbTWN0_t9B-19" edge="1">
          <mxGeometry width="160" relative="1" as="geometry">
            <mxPoint x="1807" y="619" as="sourcePoint" />
            <mxPoint x="2062" y="776" as="targetPoint" />
          </mxGeometry>
        </mxCell>
        <mxCell id="ozAexrnUwDYbTWN0_t9B-23" value="Επιλογή δράσης-οργανισμός για δωρέα&amp;nbsp;" style="ellipse;whiteSpace=wrap;html=1;" parent="1" vertex="1">
          <mxGeometry x="90" y="790" width="140" height="70" as="geometry" />
        </mxCell>
        <mxCell id="ozAexrnUwDYbTWN0_t9B-24" value="&amp;lt;&amp;lt;include&amp;gt;&amp;gt;" style="html=1;verticalAlign=bottom;labelBackgroundColor=none;endArrow=open;endFill=0;dashed=1;rounded=0;exitX=0.5;exitY=1;exitDx=0;exitDy=0;" parent="1" source="ozAexrnUwDYbTWN0_t9B-19" target="ozAexrnUwDYbTWN0_t9B-23" edge="1">
          <mxGeometry width="160" relative="1" as="geometry">
            <mxPoint x="1883" y="972" as="sourcePoint" />
            <mxPoint x="2043" y="972" as="targetPoint" />
          </mxGeometry>
        </mxCell>
        <mxCell id="ozAexrnUwDYbTWN0_t9B-25" value="Εισαγωγή ποσού - τρόπος πληρώμης" style="ellipse;whiteSpace=wrap;html=1;" parent="1" vertex="1">
          <mxGeometry x="310" y="940" width="140" height="70" as="geometry" />
        </mxCell>
        <mxCell id="ozAexrnUwDYbTWN0_t9B-26" value="&amp;lt;&amp;lt;include&amp;gt;&amp;gt;" style="html=1;verticalAlign=bottom;labelBackgroundColor=none;endArrow=open;endFill=0;dashed=1;rounded=0;exitX=0.5;exitY=1;exitDx=0;exitDy=0;entryX=0.5;entryY=0;entryDx=0;entryDy=0;" parent="1" source="ozAexrnUwDYbTWN0_t9B-23" target="ozAexrnUwDYbTWN0_t9B-25" edge="1">
          <mxGeometry width="160" relative="1" as="geometry">
            <mxPoint x="1630" y="1227" as="sourcePoint" />
            <mxPoint x="1516" y="1289" as="targetPoint" />
          </mxGeometry>
        </mxCell>
        <mxCell id="ozAexrnUwDYbTWN0_t9B-27" value="Ανακεφαλαίωση στοιχείων και επιβεβαίωση δωρεάς" style="ellipse;whiteSpace=wrap;html=1;" parent="1" vertex="1">
          <mxGeometry x="560" y="790" width="140" height="70" as="geometry" />
        </mxCell>
        <mxCell id="ozAexrnUwDYbTWN0_t9B-28" value="&amp;lt;&amp;lt;include&amp;gt;&amp;gt;" style="html=1;verticalAlign=bottom;labelBackgroundColor=none;endArrow=open;endFill=0;dashed=1;rounded=0;" parent="1" source="ozAexrnUwDYbTWN0_t9B-25" target="ozAexrnUwDYbTWN0_t9B-27" edge="1">
          <mxGeometry width="160" relative="1" as="geometry">
            <mxPoint x="1823" y="1158" as="sourcePoint" />
            <mxPoint x="1983" y="1158" as="targetPoint" />
          </mxGeometry>
        </mxCell>
        <mxCell id="ozAexrnUwDYbTWN0_t9B-29" value="&amp;lt;&amp;lt;include&amp;gt;&amp;gt;" style="html=1;verticalAlign=bottom;labelBackgroundColor=none;endArrow=open;endFill=0;dashed=1;rounded=0;entryX=0.5;entryY=0.5;entryDx=0;entryDy=0;entryPerimeter=0;" parent="1" source="ozAexrnUwDYbTWN0_t9B-27" target="5ojVr-R2FoughXSiMXYQ-43" edge="1">
          <mxGeometry width="160" relative="1" as="geometry">
            <mxPoint x="1878" y="1120" as="sourcePoint" />
            <mxPoint x="1650" y="310" as="targetPoint" />
            <Array as="points">
              <mxPoint x="1160" y="640" />
            </Array>
          </mxGeometry>
        </mxCell>
        <mxCell id="ozAexrnUwDYbTWN0_t9B-30" value="Ακύρωση Δωρεάς" style="ellipse;whiteSpace=wrap;html=1;" parent="1" vertex="1">
          <mxGeometry x="540" y="1060" width="140" height="70" as="geometry" />
        </mxCell>
        <mxCell id="ozAexrnUwDYbTWN0_t9B-31" value="&amp;lt;&amp;lt;extend&amp;gt;&amp;gt;" style="html=1;verticalAlign=bottom;labelBackgroundColor=none;endArrow=open;endFill=0;dashed=1;rounded=0;" parent="1" source="ozAexrnUwDYbTWN0_t9B-27" target="ozAexrnUwDYbTWN0_t9B-30" edge="1">
          <mxGeometry width="160" relative="1" as="geometry">
            <mxPoint x="1649" y="1120" as="sourcePoint" />
            <mxPoint x="1809" y="1120" as="targetPoint" />
          </mxGeometry>
        </mxCell>
        <mxCell id="ozAexrnUwDYbTWN0_t9B-32" value="Εισαγωγή μη-έγκυρου ποσού" style="ellipse;whiteSpace=wrap;html=1;" parent="1" vertex="1">
          <mxGeometry x="20" y="950" width="140" height="70" as="geometry" />
        </mxCell>
        <mxCell id="ozAexrnUwDYbTWN0_t9B-33" value="&amp;lt;&amp;lt;extend&amp;gt;&amp;gt;" style="html=1;verticalAlign=bottom;labelBackgroundColor=none;endArrow=open;endFill=0;dashed=1;rounded=0;exitX=0;exitY=0.5;exitDx=0;exitDy=0;" parent="1" source="ozAexrnUwDYbTWN0_t9B-25" target="ozAexrnUwDYbTWN0_t9B-32" edge="1">
          <mxGeometry width="160" relative="1" as="geometry">
            <mxPoint x="1649" y="1120" as="sourcePoint" />
            <mxPoint x="1809" y="1120" as="targetPoint" />
          </mxGeometry>
        </mxCell>
        <mxCell id="ozAexrnUwDYbTWN0_t9B-39" value="" style="endArrow=none;html=1;rounded=0;exitX=0;exitY=0;exitDx=0;exitDy=0;entryX=0.5;entryY=0.5;entryDx=0;entryDy=0;entryPerimeter=0;" parent="1" source="ozAexrnUwDYbTWN0_t9B-17" target="HnD6LduY7zY77JEL5Ho--6" edge="1">
          <mxGeometry width="50" height="50" relative="1" as="geometry">
            <mxPoint x="680" y="730" as="sourcePoint" />
            <mxPoint x="-200" y="240" as="targetPoint" />
          </mxGeometry>
        </mxCell>
        <mxCell id="Nxb1YHYcXCWnl1iw6oOs-3" value="υποβολή νέου μηνύματος" style="ellipse;whiteSpace=wrap;html=1;" parent="1" vertex="1">
          <mxGeometry x="-430" y="1150" width="140" height="70" as="geometry" />
        </mxCell>
        <mxCell id="Nxb1YHYcXCWnl1iw6oOs-4" value="επιλογή φόρουμ για συγκεκριμένο περιστατικό" style="ellipse;whiteSpace=wrap;html=1;" parent="1" vertex="1">
          <mxGeometry x="-530" y="990" width="140" height="70" as="geometry" />
        </mxCell>
        <mxCell id="Nxb1YHYcXCWnl1iw6oOs-5" value="επιλογή κουμπιού &quot;Φόρουμ Συζητήσεων&quot;" style="ellipse;whiteSpace=wrap;html=1;" parent="1" vertex="1">
          <mxGeometry x="-597.75" y="850" width="140" height="70" as="geometry" />
        </mxCell>
        <mxCell id="Nxb1YHYcXCWnl1iw6oOs-6" value="εμφάνιση λίστας όλων των διαθέσιμων φόρουμ" style="ellipse;whiteSpace=wrap;html=1;" parent="1" vertex="1">
          <mxGeometry x="-210" y="836.5" width="140" height="70" as="geometry" />
        </mxCell>
        <mxCell id="Nxb1YHYcXCWnl1iw6oOs-10" value="εμφάνιση ήδη υπάρχοντων μηνυμάτων" style="ellipse;whiteSpace=wrap;html=1;" parent="1" vertex="1">
          <mxGeometry x="-160" y="1030" width="140" height="70" as="geometry" />
        </mxCell>
        <mxCell id="Nxb1YHYcXCWnl1iw6oOs-11" value="αποθήκευση μηνύματος" style="ellipse;whiteSpace=wrap;html=1;" parent="1" vertex="1">
          <mxGeometry x="50" y="1190" width="140" height="70" as="geometry" />
        </mxCell>
        <mxCell id="Nxb1YHYcXCWnl1iw6oOs-12" value="&amp;lt;&amp;lt;include&amp;gt;&amp;gt;" style="html=1;verticalAlign=bottom;labelBackgroundColor=none;endArrow=open;endFill=0;dashed=1;rounded=0;exitX=1;exitY=0.5;exitDx=0;exitDy=0;entryX=0.05;entryY=0.514;entryDx=0;entryDy=0;entryPerimeter=0;" parent="1" source="Nxb1YHYcXCWnl1iw6oOs-5" target="Nxb1YHYcXCWnl1iw6oOs-6" edge="1">
          <mxGeometry width="160" relative="1" as="geometry">
            <mxPoint x="-250" y="1750" as="sourcePoint" />
            <mxPoint x="-250" y="1580" as="targetPoint" />
          </mxGeometry>
        </mxCell>
        <mxCell id="Nxb1YHYcXCWnl1iw6oOs-13" value="&amp;lt;&amp;lt;include&amp;gt;&amp;gt;" style="html=1;verticalAlign=bottom;labelBackgroundColor=none;endArrow=open;endFill=0;dashed=1;rounded=0;exitX=1;exitY=0.5;exitDx=0;exitDy=0;entryX=0;entryY=0.5;entryDx=0;entryDy=0;" parent="1" source="Nxb1YHYcXCWnl1iw6oOs-4" target="Nxb1YHYcXCWnl1iw6oOs-10" edge="1">
          <mxGeometry width="160" relative="1" as="geometry">
            <mxPoint x="-250" y="1750" as="sourcePoint" />
            <mxPoint x="-90" y="1750" as="targetPoint" />
          </mxGeometry>
        </mxCell>
        <mxCell id="Nxb1YHYcXCWnl1iw6oOs-14" value="&amp;lt;&amp;lt;include&amp;gt;&amp;gt;" style="html=1;verticalAlign=bottom;labelBackgroundColor=none;endArrow=open;endFill=0;dashed=1;rounded=0;exitX=1;exitY=0.5;exitDx=0;exitDy=0;" parent="1" source="Nxb1YHYcXCWnl1iw6oOs-3" target="Nxb1YHYcXCWnl1iw6oOs-11" edge="1">
          <mxGeometry width="160" relative="1" as="geometry">
            <mxPoint x="-260" y="1430" as="sourcePoint" />
            <mxPoint x="-100" y="1430" as="targetPoint" />
          </mxGeometry>
        </mxCell>
        <mxCell id="Nxb1YHYcXCWnl1iw6oOs-17" value="επιλογή κουμπιού &quot;Χάρτης Κινδύνων&quot;" style="ellipse;whiteSpace=wrap;html=1;" parent="1" vertex="1">
          <mxGeometry x="-320" y="1300" width="140" height="70" as="geometry" />
        </mxCell>
        <mxCell id="Nxb1YHYcXCWnl1iw6oOs-18" value="πάτημα δείκτη στον χάρτη και εμφάνιση pop-up μηνύματος" style="ellipse;whiteSpace=wrap;html=1;" parent="1" vertex="1">
          <mxGeometry x="-320" y="1440" width="140" height="70" as="geometry" />
        </mxCell>
        <mxCell id="Nxb1YHYcXCWnl1iw6oOs-19" value="λειτουργία zoom in/out" style="ellipse;whiteSpace=wrap;html=1;" parent="1" vertex="1">
          <mxGeometry x="-590" y="1350" width="140" height="70" as="geometry" />
        </mxCell>
        <mxCell id="Nxb1YHYcXCWnl1iw6oOs-20" value="&amp;lt;&amp;lt;include&amp;gt;&amp;gt;" style="html=1;verticalAlign=bottom;labelBackgroundColor=none;endArrow=open;endFill=0;dashed=1;rounded=0;exitX=1;exitY=0.5;exitDx=0;exitDy=0;" parent="1" source="Nxb1YHYcXCWnl1iw6oOs-17" target="Nxb1YHYcXCWnl1iw6oOs-21" edge="1">
          <mxGeometry width="160" relative="1" as="geometry">
            <mxPoint x="-260" y="1730" as="sourcePoint" />
            <mxPoint x="-190" y="1725" as="targetPoint" />
          </mxGeometry>
        </mxCell>
        <mxCell id="Nxb1YHYcXCWnl1iw6oOs-21" value="ανάκτηση επιβεβαιωμένων αναφορών" style="ellipse;whiteSpace=wrap;html=1;" parent="1" vertex="1">
          <mxGeometry x="140" y="1375" width="140" height="70" as="geometry" />
        </mxCell>
        <mxCell id="Nxb1YHYcXCWnl1iw6oOs-22" value="&amp;lt;&amp;lt;include&amp;gt;&amp;gt;" style="html=1;verticalAlign=bottom;labelBackgroundColor=none;endArrow=open;endFill=0;dashed=1;rounded=0;exitX=1;exitY=0.5;exitDx=0;exitDy=0;" parent="1" source="Nxb1YHYcXCWnl1iw6oOs-21" target="Nxb1YHYcXCWnl1iw6oOs-23" edge="1">
          <mxGeometry width="160" relative="1" as="geometry">
            <mxPoint x="-260" y="1730" as="sourcePoint" />
            <mxPoint x="20" y="1725" as="targetPoint" />
          </mxGeometry>
        </mxCell>
        <mxCell id="Nxb1YHYcXCWnl1iw6oOs-23" value="μετατροπή γεωγραφικών συντεταγμένων σε σημεία τοποθεσίας" style="ellipse;whiteSpace=wrap;html=1;" parent="1" vertex="1">
          <mxGeometry x="570" y="1350" width="140" height="70" as="geometry" />
        </mxCell>
        <mxCell id="Nxb1YHYcXCWnl1iw6oOs-24" value="&amp;lt;&amp;lt;include&amp;gt;&amp;gt;" style="html=1;verticalAlign=bottom;labelBackgroundColor=none;endArrow=open;endFill=0;dashed=1;rounded=0;exitX=1;exitY=0.5;exitDx=0;exitDy=0;" parent="1" source="Nxb1YHYcXCWnl1iw6oOs-23" target="Nxb1YHYcXCWnl1iw6oOs-25" edge="1">
          <mxGeometry width="160" relative="1" as="geometry">
            <mxPoint x="-260" y="1730" as="sourcePoint" />
            <mxPoint x="270" y="1725" as="targetPoint" />
          </mxGeometry>
        </mxCell>
        <mxCell id="Nxb1YHYcXCWnl1iw6oOs-25" value="προβολή διαδραστικού χάρτη με δείκτες" style="ellipse;whiteSpace=wrap;html=1;" parent="1" vertex="1">
          <mxGeometry x="190" y="1660" width="140" height="70" as="geometry" />
        </mxCell>
        <mxCell id="Nxb1YHYcXCWnl1iw6oOs-26" value="&amp;lt;&amp;lt;include&amp;gt;&amp;gt;" style="html=1;verticalAlign=bottom;labelBackgroundColor=none;endArrow=open;endFill=0;dashed=1;rounded=0;exitX=1;exitY=0.5;exitDx=0;exitDy=0;" parent="1" source="Nxb1YHYcXCWnl1iw6oOs-25" target="Nxb1YHYcXCWnl1iw6oOs-27" edge="1">
          <mxGeometry width="160" relative="1" as="geometry">
            <mxPoint x="-260" y="1730" as="sourcePoint" />
            <mxPoint x="490" y="1725" as="targetPoint" />
          </mxGeometry>
        </mxCell>
        <mxCell id="Nxb1YHYcXCWnl1iw6oOs-27" value="παρακολούθηση νέων επιβεβαιωμένων αναφορών" style="ellipse;whiteSpace=wrap;html=1;" parent="1" vertex="1">
          <mxGeometry x="510" y="1870" width="140" height="70" as="geometry" />
        </mxCell>
        <mxCell id="Nxb1YHYcXCWnl1iw6oOs-28" value="&amp;lt;&amp;lt;include&amp;gt;&amp;gt;" style="html=1;verticalAlign=bottom;labelBackgroundColor=none;endArrow=open;endFill=0;dashed=1;rounded=0;exitX=1;exitY=0.5;exitDx=0;exitDy=0;" parent="1" source="Nxb1YHYcXCWnl1iw6oOs-27" target="Nxb1YHYcXCWnl1iw6oOs-29" edge="1">
          <mxGeometry width="160" relative="1" as="geometry">
            <mxPoint x="20" y="1830" as="sourcePoint" />
            <mxPoint x="730" y="1725" as="targetPoint" />
          </mxGeometry>
        </mxCell>
        <mxCell id="Nxb1YHYcXCWnl1iw6oOs-29" value="αυτόματη προσθήκη νέας αναφοράς στον χάρτη" style="ellipse;whiteSpace=wrap;html=1;" parent="1" vertex="1">
          <mxGeometry x="720" y="1660" width="140" height="70" as="geometry" />
        </mxCell>
        <mxCell id="Nxb1YHYcXCWnl1iw6oOs-30" value="&amp;lt;&amp;lt;include&amp;gt;&amp;gt;" style="html=1;verticalAlign=bottom;labelBackgroundColor=none;endArrow=open;endFill=0;dashed=1;rounded=0;exitX=1;exitY=0.5;exitDx=0;exitDy=0;entryX=0;entryY=0;entryDx=0;entryDy=0;" parent="1" source="Nxb1YHYcXCWnl1iw6oOs-18" target="Nxb1YHYcXCWnl1iw6oOs-25" edge="1">
          <mxGeometry width="160" relative="1" as="geometry">
            <mxPoint x="30" y="1580" as="sourcePoint" />
            <mxPoint x="520" y="2020" as="targetPoint" />
          </mxGeometry>
        </mxCell>
        <mxCell id="Nxb1YHYcXCWnl1iw6oOs-31" value="" style="endArrow=none;html=1;rounded=0;exitX=1;exitY=0.3333333333333333;exitDx=0;exitDy=0;exitPerimeter=0;entryX=0;entryY=0.5;entryDx=0;entryDy=0;" parent="1" source="HnD6LduY7zY77JEL5Ho--6" target="Nxb1YHYcXCWnl1iw6oOs-5" edge="1">
          <mxGeometry width="50" height="50" relative="1" as="geometry">
            <mxPoint x="-700" y="2000" as="sourcePoint" />
            <mxPoint x="-170" y="1950" as="targetPoint" />
          </mxGeometry>
        </mxCell>
        <mxCell id="Nxb1YHYcXCWnl1iw6oOs-32" value="" style="endArrow=none;html=1;rounded=0;exitX=0.25;exitY=0.1;exitDx=0;exitDy=0;exitPerimeter=0;entryX=0;entryY=0.5;entryDx=0;entryDy=0;" parent="1" source="HnD6LduY7zY77JEL5Ho--6" target="Nxb1YHYcXCWnl1iw6oOs-4" edge="1">
          <mxGeometry width="50" height="50" relative="1" as="geometry">
            <mxPoint x="-700" y="2000" as="sourcePoint" />
            <mxPoint x="-170" y="1950" as="targetPoint" />
          </mxGeometry>
        </mxCell>
        <mxCell id="Nxb1YHYcXCWnl1iw6oOs-33" value="" style="endArrow=none;html=1;rounded=0;exitX=0.75;exitY=0.1;exitDx=0;exitDy=0;exitPerimeter=0;entryX=0;entryY=0.5;entryDx=0;entryDy=0;" parent="1" source="HnD6LduY7zY77JEL5Ho--6" target="Nxb1YHYcXCWnl1iw6oOs-3" edge="1">
          <mxGeometry width="50" height="50" relative="1" as="geometry">
            <mxPoint x="-700" y="2000" as="sourcePoint" />
            <mxPoint x="-170" y="1950" as="targetPoint" />
          </mxGeometry>
        </mxCell>
        <mxCell id="Nxb1YHYcXCWnl1iw6oOs-34" value="" style="endArrow=none;html=1;rounded=0;exitX=0.25;exitY=0.1;exitDx=0;exitDy=0;exitPerimeter=0;entryX=0;entryY=0.5;entryDx=0;entryDy=0;" parent="1" source="HnD6LduY7zY77JEL5Ho--6" target="Nxb1YHYcXCWnl1iw6oOs-17" edge="1">
          <mxGeometry width="50" height="50" relative="1" as="geometry">
            <mxPoint x="-700" y="2000" as="sourcePoint" />
            <mxPoint x="-170" y="1950" as="targetPoint" />
          </mxGeometry>
        </mxCell>
        <mxCell id="Nxb1YHYcXCWnl1iw6oOs-35" value="" style="endArrow=none;html=1;rounded=0;exitX=0.25;exitY=0.1;exitDx=0;exitDy=0;exitPerimeter=0;entryX=0;entryY=0.5;entryDx=0;entryDy=0;" parent="1" source="HnD6LduY7zY77JEL5Ho--6" target="Nxb1YHYcXCWnl1iw6oOs-18" edge="1">
          <mxGeometry width="50" height="50" relative="1" as="geometry">
            <mxPoint x="-700" y="2000" as="sourcePoint" />
            <mxPoint x="-170" y="1950" as="targetPoint" />
          </mxGeometry>
        </mxCell>
        <mxCell id="Nxb1YHYcXCWnl1iw6oOs-36" value="" style="endArrow=none;html=1;rounded=0;exitX=0.25;exitY=0.1;exitDx=0;exitDy=0;exitPerimeter=0;entryX=0;entryY=0.5;entryDx=0;entryDy=0;" parent="1" source="HnD6LduY7zY77JEL5Ho--6" target="Nxb1YHYcXCWnl1iw6oOs-19" edge="1">
          <mxGeometry width="50" height="50" relative="1" as="geometry">
            <mxPoint x="-700" y="2000" as="sourcePoint" />
            <mxPoint x="-170" y="1950" as="targetPoint" />
          </mxGeometry>
        </mxCell>
        <mxCell id="Nxb1YHYcXCWnl1iw6oOs-45" value="δημιουργία νέου φόρουμ" style="ellipse;whiteSpace=wrap;html=1;" parent="1" vertex="1">
          <mxGeometry x="700" y="-335" width="140" height="70" as="geometry" />
        </mxCell>
        <mxCell id="Nxb1YHYcXCWnl1iw6oOs-46" value="έλεγχος για υπάρχον φόρουμ" style="ellipse;whiteSpace=wrap;html=1;" parent="1" vertex="1">
          <mxGeometry x="590" y="-492.5" width="140" height="70" as="geometry" />
        </mxCell>
        <mxCell id="Nxb1YHYcXCWnl1iw6oOs-47" value="ανίχνευση νέας επιβεβαιωμένης αναφοράς" style="ellipse;whiteSpace=wrap;html=1;" parent="1" vertex="1">
          <mxGeometry x="496.5" y="-300" width="140" height="70" as="geometry" />
        </mxCell>
        <mxCell id="Nxb1YHYcXCWnl1iw6oOs-48" value="&amp;lt;&amp;lt;include&amp;gt;&amp;gt;" style="html=1;verticalAlign=bottom;labelBackgroundColor=none;endArrow=open;endFill=0;dashed=1;rounded=0;" parent="1" source="Nxb1YHYcXCWnl1iw6oOs-46" target="Nxb1YHYcXCWnl1iw6oOs-45" edge="1">
          <mxGeometry width="160" relative="1" as="geometry">
            <mxPoint x="1375" y="-1090" as="sourcePoint" />
            <mxPoint x="1475" y="-270" as="targetPoint" />
          </mxGeometry>
        </mxCell>
        <mxCell id="Nxb1YHYcXCWnl1iw6oOs-49" value="&amp;lt;&amp;lt;include&amp;gt;&amp;gt;" style="html=1;verticalAlign=bottom;labelBackgroundColor=none;endArrow=open;endFill=0;dashed=1;rounded=0;" parent="1" source="Nxb1YHYcXCWnl1iw6oOs-47" target="Nxb1YHYcXCWnl1iw6oOs-46" edge="1">
          <mxGeometry width="160" relative="1" as="geometry">
            <mxPoint x="1665" y="-1190" as="sourcePoint" />
            <mxPoint x="1825" y="-1190" as="targetPoint" />
          </mxGeometry>
        </mxCell>
        <mxCell id="SlFlDC7onq-lnfKXw3GX-5" value="Επιλογή εικονιδίου&amp;nbsp;&lt;div&gt;chatbot&lt;/div&gt;" style="ellipse;whiteSpace=wrap;html=1;" parent="1" vertex="1">
          <mxGeometry x="-837.25" y="257" width="130" height="57" as="geometry" />
        </mxCell>
        <mxCell id="SlFlDC7onq-lnfKXw3GX-6" value="Ενεργοποίηση chatbot" style="ellipse;whiteSpace=wrap;html=1;" parent="1" vertex="1">
          <mxGeometry x="-860" y="37" width="110" height="56" as="geometry" />
        </mxCell>
        <mxCell id="SlFlDC7onq-lnfKXw3GX-7" value="" style="endArrow=none;html=1;rounded=0;exitX=0.4;exitY=0.678;exitDx=0;exitDy=0;exitPerimeter=0;" parent="1" source="HnD6LduY7zY77JEL5Ho--6" target="SlFlDC7onq-lnfKXw3GX-5" edge="1">
          <mxGeometry width="50" height="50" relative="1" as="geometry">
            <mxPoint x="-802" y="143" as="sourcePoint" />
            <mxPoint x="-410" y="10" as="targetPoint" />
          </mxGeometry>
        </mxCell>
        <mxCell id="SlFlDC7onq-lnfKXw3GX-8" value="&lt;font style=&quot;font-size: 10px;&quot;&gt;&amp;lt;&amp;lt;Include&amp;gt;&amp;gt;&lt;/font&gt;" style="endArrow=open;endSize=12;dashed=1;html=1;rounded=0;fontSize=12;curved=1;exitX=0.5;exitY=0;exitDx=0;exitDy=0;entryX=0.318;entryY=1;entryDx=0;entryDy=0;entryPerimeter=0;" parent="1" source="SlFlDC7onq-lnfKXw3GX-5" target="SlFlDC7onq-lnfKXw3GX-6" edge="1">
          <mxGeometry width="160" relative="1" as="geometry">
            <mxPoint x="368" y="-53" as="sourcePoint" />
            <mxPoint x="464" y="-75" as="targetPoint" />
          </mxGeometry>
        </mxCell>
        <mxCell id="SlFlDC7onq-lnfKXw3GX-9" value="Προβολή μηνύματος καλοσωρίσματος." style="ellipse;whiteSpace=wrap;html=1;" parent="1" vertex="1">
          <mxGeometry x="-550" y="277" width="120" height="51" as="geometry" />
        </mxCell>
        <mxCell id="SlFlDC7onq-lnfKXw3GX-10" value="&lt;font style=&quot;font-size: 10px;&quot;&gt;&amp;lt;&amp;lt;Include&amp;gt;&amp;gt;&lt;/font&gt;" style="endArrow=open;endSize=12;dashed=1;html=1;rounded=0;fontSize=12;curved=1;entryX=0.058;entryY=0.817;entryDx=0;entryDy=0;entryPerimeter=0;" parent="1" source="SlFlDC7onq-lnfKXw3GX-5" target="SlFlDC7onq-lnfKXw3GX-9" edge="1">
          <mxGeometry width="160" relative="1" as="geometry">
            <mxPoint x="-642" y="120" as="sourcePoint" />
            <mxPoint x="-605" y="74" as="targetPoint" />
          </mxGeometry>
        </mxCell>
        <mxCell id="SlFlDC7onq-lnfKXw3GX-11" value="Εισαγωγή κειμένου στο chatbot" style="ellipse;whiteSpace=wrap;html=1;" parent="1" vertex="1">
          <mxGeometry x="-540" y="120" width="130" height="63" as="geometry" />
        </mxCell>
        <mxCell id="SlFlDC7onq-lnfKXw3GX-12" value="" style="endArrow=none;html=1;rounded=0;entryX=0.728;entryY=0.147;entryDx=0;entryDy=0;entryPerimeter=0;" parent="1" source="SlFlDC7onq-lnfKXw3GX-11" target="SlFlDC7onq-lnfKXw3GX-9" edge="1">
          <mxGeometry width="50" height="50" relative="1" as="geometry">
            <mxPoint x="-460" y="60" as="sourcePoint" />
            <mxPoint x="-410" y="10" as="targetPoint" />
          </mxGeometry>
        </mxCell>
        <mxCell id="SlFlDC7onq-lnfKXw3GX-13" value="&lt;font style=&quot;font-size: 10px;&quot;&gt;&amp;lt;&amp;lt;Include&amp;gt;&amp;gt;&lt;/font&gt;" style="endArrow=open;endSize=12;dashed=1;html=1;rounded=0;fontSize=12;curved=1;" parent="1" source="SlFlDC7onq-lnfKXw3GX-11" target="SlFlDC7onq-lnfKXw3GX-14" edge="1">
          <mxGeometry width="160" relative="1" as="geometry">
            <mxPoint x="-611" y="88" as="sourcePoint" />
            <mxPoint x="-618.2221694727489" y="187.8705994804584" as="targetPoint" />
          </mxGeometry>
        </mxCell>
        <mxCell id="SlFlDC7onq-lnfKXw3GX-14" value="Λήψη απάντησης" style="ellipse;whiteSpace=wrap;html=1;" parent="1" vertex="1">
          <mxGeometry x="-720" y="20" width="100" height="64" as="geometry" />
        </mxCell>
        <mxCell id="SlFlDC7onq-lnfKXw3GX-19" value="&lt;font style=&quot;font-size: 11px;&quot;&gt;Δημιουργία κοινωνικής δράσης&lt;/font&gt;" style="ellipse;whiteSpace=wrap;html=1;direction=west;" parent="1" vertex="1">
          <mxGeometry x="-837.25" y="1300" width="117.25" height="75" as="geometry" />
        </mxCell>
        <mxCell id="SlFlDC7onq-lnfKXw3GX-20" value="Εμφάνιση σελίδας με διαθέσιμες δράσεις για δημιουργία" style="ellipse;whiteSpace=wrap;html=1;fontSize=11;" parent="1" vertex="1">
          <mxGeometry x="-570" y="1520" width="140" height="70" as="geometry" />
        </mxCell>
        <mxCell id="SlFlDC7onq-lnfKXw3GX-21" value="&lt;font style=&quot;font-size: 10px;&quot;&gt;&amp;lt;&amp;lt;Include&amp;gt;&amp;gt;&lt;/font&gt;" style="endArrow=open;endSize=12;dashed=1;html=1;rounded=0;fontSize=12;curved=1;" parent="1" source="SlFlDC7onq-lnfKXw3GX-19" target="SlFlDC7onq-lnfKXw3GX-20" edge="1">
          <mxGeometry width="160" relative="1" as="geometry">
            <mxPoint x="-623" y="1886" as="sourcePoint" />
            <mxPoint x="-463" y="1886" as="targetPoint" />
          </mxGeometry>
        </mxCell>
        <mxCell id="SlFlDC7onq-lnfKXw3GX-22" value="" style="endArrow=none;html=1;rounded=0;exitX=0.603;exitY=0.68;exitDx=0;exitDy=0;exitPerimeter=0;" parent="1" source="HnD6LduY7zY77JEL5Ho--6" target="SlFlDC7onq-lnfKXw3GX-19" edge="1">
          <mxGeometry width="50" height="50" relative="1" as="geometry">
            <mxPoint x="-950" y="2160" as="sourcePoint" />
            <mxPoint x="-847" y="2038.9999999999998" as="targetPoint" />
          </mxGeometry>
        </mxCell>
        <mxCell id="SlFlDC7onq-lnfKXw3GX-23" value="&lt;font style=&quot;font-size: 11px;&quot;&gt;Επιλογή δράσης&lt;/font&gt;" style="ellipse;whiteSpace=wrap;html=1;direction=west;" parent="1" vertex="1">
          <mxGeometry x="-780" y="1640" width="130" height="59" as="geometry" />
        </mxCell>
        <mxCell id="SlFlDC7onq-lnfKXw3GX-24" value="" style="endArrow=none;html=1;rounded=0;entryX=0.5;entryY=1;entryDx=0;entryDy=0;" parent="1" source="SlFlDC7onq-lnfKXw3GX-23" target="SlFlDC7onq-lnfKXw3GX-20" edge="1">
          <mxGeometry width="50" height="50" relative="1" as="geometry">
            <mxPoint x="-950" y="1850" as="sourcePoint" />
            <mxPoint x="-845" y="1748" as="targetPoint" />
          </mxGeometry>
        </mxCell>
        <mxCell id="SlFlDC7onq-lnfKXw3GX-25" value="&lt;font style=&quot;font-size: 11px;&quot;&gt;Εμφάνιση φόρμας συμπλήρωσης στοιχείων&lt;/font&gt;" style="ellipse;whiteSpace=wrap;html=1;direction=west;" parent="1" vertex="1">
          <mxGeometry x="-880" y="1801" width="130" height="59" as="geometry" />
        </mxCell>
        <mxCell id="SlFlDC7onq-lnfKXw3GX-26" value="&lt;font style=&quot;font-size: 10px;&quot;&gt;&amp;lt;&amp;lt;Include&amp;gt;&amp;gt;&lt;/font&gt;" style="endArrow=open;endSize=12;dashed=1;html=1;rounded=0;fontSize=12;curved=1;exitX=1;exitY=0;exitDx=0;exitDy=0;" parent="1" source="SlFlDC7onq-lnfKXw3GX-23" target="SlFlDC7onq-lnfKXw3GX-25" edge="1">
          <mxGeometry width="160" relative="1" as="geometry">
            <mxPoint x="-749" y="1708" as="sourcePoint" />
            <mxPoint x="-630" y="1680" as="targetPoint" />
          </mxGeometry>
        </mxCell>
        <mxCell id="SlFlDC7onq-lnfKXw3GX-27" value="&lt;font style=&quot;font-size: 11px;&quot;&gt;Συμπλήρωση στοιχείων&lt;/font&gt;" style="ellipse;whiteSpace=wrap;html=1;direction=west;" parent="1" vertex="1">
          <mxGeometry x="-520" y="1682" width="130" height="59" as="geometry" />
        </mxCell>
        <mxCell id="SlFlDC7onq-lnfKXw3GX-28" value="" style="endArrow=none;html=1;rounded=0;entryX=0;entryY=0;entryDx=0;entryDy=0;exitX=1;exitY=0;exitDx=0;exitDy=0;" parent="1" source="SlFlDC7onq-lnfKXw3GX-27" target="SlFlDC7onq-lnfKXw3GX-25" edge="1">
          <mxGeometry width="50" height="50" relative="1" as="geometry">
            <mxPoint x="-950" y="1850" as="sourcePoint" />
            <mxPoint x="-845" y="1748" as="targetPoint" />
          </mxGeometry>
        </mxCell>
        <mxCell id="SlFlDC7onq-lnfKXw3GX-29" value="&lt;font style=&quot;font-size: 11px;&quot;&gt;Έλεγχος στοιχείων της φόραμς&lt;/font&gt;" style="ellipse;whiteSpace=wrap;html=1;direction=west;" parent="1" vertex="1">
          <mxGeometry x="-70" y="1822" width="130" height="59" as="geometry" />
        </mxCell>
        <mxCell id="SlFlDC7onq-lnfKXw3GX-30" value="&lt;font style=&quot;font-size: 10px;&quot;&gt;&amp;lt;&amp;lt;Include&amp;gt;&amp;gt;&lt;/font&gt;" style="endArrow=open;endSize=12;dashed=1;html=1;rounded=0;fontSize=12;curved=1;exitX=0.066;exitY=0.738;exitDx=0;exitDy=0;exitPerimeter=0;entryX=1;entryY=0;entryDx=0;entryDy=0;" parent="1" source="SlFlDC7onq-lnfKXw3GX-27" target="SlFlDC7onq-lnfKXw3GX-29" edge="1">
          <mxGeometry width="160" relative="1" as="geometry">
            <mxPoint x="-749" y="1708" as="sourcePoint" />
            <mxPoint x="-630" y="1680" as="targetPoint" />
          </mxGeometry>
        </mxCell>
        <mxCell id="SlFlDC7onq-lnfKXw3GX-31" value="&lt;font style=&quot;font-size: 11px;&quot;&gt;Αποθήκευση δράσης&lt;/font&gt;" style="ellipse;whiteSpace=wrap;html=1;direction=west;" parent="1" vertex="1">
          <mxGeometry x="-190" y="1900" width="130" height="59" as="geometry" />
        </mxCell>
        <mxCell id="SlFlDC7onq-lnfKXw3GX-32" value="&lt;font style=&quot;font-size: 10px;&quot;&gt;&amp;lt;&amp;lt;Include&amp;gt;&amp;gt;&lt;/font&gt;" style="endArrow=open;endSize=12;dashed=1;html=1;rounded=0;fontSize=12;curved=1;exitX=0;exitY=0.5;exitDx=0;exitDy=0;entryX=1;entryY=0;entryDx=0;entryDy=0;" parent="1" source="SlFlDC7onq-lnfKXw3GX-27" target="SlFlDC7onq-lnfKXw3GX-31" edge="1">
          <mxGeometry width="160" relative="1" as="geometry">
            <mxPoint x="-544" y="1806" as="sourcePoint" />
            <mxPoint x="-486" y="1742" as="targetPoint" />
          </mxGeometry>
        </mxCell>
        <mxCell id="SlFlDC7onq-lnfKXw3GX-33" value="&lt;font style=&quot;font-size: 11px;&quot;&gt;Εμφάνιση μηνύματος επιτυχούς δημιουργίας&lt;/font&gt;" style="ellipse;whiteSpace=wrap;html=1;direction=west;" parent="1" vertex="1">
          <mxGeometry x="-530" y="1860" width="130" height="59" as="geometry" />
        </mxCell>
        <mxCell id="SlFlDC7onq-lnfKXw3GX-34" value="&lt;font style=&quot;font-size: 10px;&quot;&gt;&amp;lt;&amp;lt;Include&amp;gt;&amp;gt;&lt;/font&gt;" style="endArrow=open;endSize=12;dashed=1;html=1;rounded=0;fontSize=12;curved=1;exitX=0;exitY=0;exitDx=0;exitDy=0;entryX=0.5;entryY=1;entryDx=0;entryDy=0;" parent="1" source="SlFlDC7onq-lnfKXw3GX-27" target="SlFlDC7onq-lnfKXw3GX-33" edge="1">
          <mxGeometry width="160" relative="1" as="geometry">
            <mxPoint x="-535" y="1821" as="sourcePoint" />
            <mxPoint x="-412" y="1809" as="targetPoint" />
          </mxGeometry>
        </mxCell>
        <mxCell id="SlFlDC7onq-lnfKXw3GX-39" value="&lt;font style=&quot;font-size: 48px;&quot;&gt;Safescan&lt;/font&gt;" style="text;html=1;align=center;verticalAlign=middle;whiteSpace=wrap;rounded=0;" parent="1" vertex="1">
          <mxGeometry x="-935" y="-734" width="2450" height="110" as="geometry" />
        </mxCell>
        <mxCell id="m4kJft6m30RXAfEh9IQh-2" value="Σύστημα" style="shape=umlActor;verticalLabelPosition=bottom;verticalAlign=top;html=1;" parent="1" vertex="1">
          <mxGeometry x="1620" y="-210" width="58" height="110" as="geometry" />
        </mxCell>
        <mxCell id="m4kJft6m30RXAfEh9IQh-3" value="Έλεγχος Εγκυρότητας Αναφοράς&amp;nbsp;" style="shape=ellipse;whiteSpace=wrap;html=1;" parent="1" vertex="1">
          <mxGeometry x="215" y="-240" width="130" height="90" as="geometry" />
        </mxCell>
        <mxCell id="m4kJft6m30RXAfEh9IQh-4" value="Ανάκτηση Περιεχομένου Αναφοράς" style="shape=ellipse;whiteSpace=wrap;html=1;" parent="1" vertex="1">
          <mxGeometry x="-10" y="-430" width="130" height="60" as="geometry" />
        </mxCell>
        <mxCell id="m4kJft6m30RXAfEh9IQh-5" value="Έλεγχος Φωτογραφιών" style="shape=ellipse;whiteSpace=wrap;html=1;" parent="1" vertex="1">
          <mxGeometry x="-50" y="-50" width="140" height="70" as="geometry" />
        </mxCell>
        <mxCell id="m4kJft6m30RXAfEh9IQh-6" value="Έλεγχος Περιγραφής" style="shape=ellipse;whiteSpace=wrap;html=1;" parent="1" vertex="1">
          <mxGeometry x="-140" y="-160" width="130" height="70" as="geometry" />
        </mxCell>
        <mxCell id="m4kJft6m30RXAfEh9IQh-7" value="Συνδυασμός Αποτελεσμάτων&lt;div&gt;και Απόφαση&lt;/div&gt;" style="shape=ellipse;whiteSpace=wrap;html=1;" parent="1" vertex="1">
          <mxGeometry x="295" y="-440" width="120" height="70" as="geometry" />
        </mxCell>
        <mxCell id="m4kJft6m30RXAfEh9IQh-8" value="&lt;&lt;include&gt;&gt;" style="endArrow=block;dashed=1;exitX=0.095;exitY=0.244;exitDx=0;exitDy=0;exitPerimeter=0;" parent="1" source="m4kJft6m30RXAfEh9IQh-3" target="m4kJft6m30RXAfEh9IQh-4" edge="1">
          <mxGeometry relative="1" as="geometry" />
        </mxCell>
        <mxCell id="m4kJft6m30RXAfEh9IQh-9" value="&lt;&lt;include&gt;&gt;" style="endArrow=block;dashed=1;" parent="1" source="m4kJft6m30RXAfEh9IQh-3" target="m4kJft6m30RXAfEh9IQh-5" edge="1">
          <mxGeometry relative="1" as="geometry" />
        </mxCell>
        <mxCell id="m4kJft6m30RXAfEh9IQh-10" value="&lt;&lt;include&gt;&gt;" style="endArrow=block;dashed=1;" parent="1" source="m4kJft6m30RXAfEh9IQh-3" target="m4kJft6m30RXAfEh9IQh-6" edge="1">
          <mxGeometry relative="1" as="geometry" />
        </mxCell>
        <mxCell id="m4kJft6m30RXAfEh9IQh-11" value="&lt;&lt;include&gt;&gt;" style="endArrow=block;dashed=1;" parent="1" source="m4kJft6m30RXAfEh9IQh-3" target="m4kJft6m30RXAfEh9IQh-7" edge="1">
          <mxGeometry relative="1" as="geometry" />
        </mxCell>
        <mxCell id="m4kJft6m30RXAfEh9IQh-12" value="&amp;lt;&amp;lt;extend&amp;gt;&amp;gt;" style="html=1;verticalAlign=bottom;labelBackgroundColor=none;endArrow=open;endFill=0;dashed=1;rounded=0;" parent="1" source="m4kJft6m30RXAfEh9IQh-13" target="m4kJft6m30RXAfEh9IQh-5" edge="1">
          <mxGeometry width="160" relative="1" as="geometry">
            <mxPoint x="375" y="-230" as="sourcePoint" />
            <mxPoint x="635" y="-210" as="targetPoint" />
          </mxGeometry>
        </mxCell>
        <mxCell id="m4kJft6m30RXAfEh9IQh-13" value="Απόρριψη λόγω ακατάλληλης φωτογραφίας" style="ellipse;whiteSpace=wrap;html=1;" parent="1" vertex="1">
          <mxGeometry x="-400" y="-40" width="120" height="90" as="geometry" />
        </mxCell>
        <mxCell id="m4kJft6m30RXAfEh9IQh-14" value="&amp;lt;&amp;lt;extend&amp;gt;&amp;gt;" style="html=1;verticalAlign=bottom;labelBackgroundColor=none;endArrow=open;endFill=0;dashed=1;rounded=0;" parent="1" source="m4kJft6m30RXAfEh9IQh-15" target="m4kJft6m30RXAfEh9IQh-6" edge="1">
          <mxGeometry width="160" relative="1" as="geometry">
            <mxPoint x="250" y="-200" as="sourcePoint" />
            <mxPoint x="283" y="-196" as="targetPoint" />
          </mxGeometry>
        </mxCell>
        <mxCell id="m4kJft6m30RXAfEh9IQh-15" value="Απόρριψη&amp;nbsp;&lt;div&gt;λόγω ασαφούς κειμένου&lt;/div&gt;" style="ellipse;whiteSpace=wrap;html=1;" parent="1" vertex="1">
          <mxGeometry x="-390" y="-195" width="130" height="80" as="geometry" />
        </mxCell>
        <mxCell id="m4kJft6m30RXAfEh9IQh-16" value="&lt;&lt;include&gt;&gt;" style="endArrow=block;dashed=1;" parent="1" source="m4kJft6m30RXAfEh9IQh-3" target="m4kJft6m30RXAfEh9IQh-17" edge="1">
          <mxGeometry relative="1" as="geometry">
            <mxPoint x="515" y="-530" as="sourcePoint" />
            <mxPoint x="615" y="-479" as="targetPoint" />
          </mxGeometry>
        </mxCell>
        <mxCell id="m4kJft6m30RXAfEh9IQh-17" value="Ενημέρωση Χρήστη" style="shape=ellipse;whiteSpace=wrap;html=1;" parent="1" vertex="1">
          <mxGeometry x="130" y="-510" width="120" height="70" as="geometry" />
        </mxCell>
        <mxCell id="m4kJft6m30RXAfEh9IQh-18" value="&lt;&lt;include&gt;&gt;" style="endArrow=block;dashed=1;" parent="1" source="5ojVr-R2FoughXSiMXYQ-29" target="m4kJft6m30RXAfEh9IQh-3" edge="1">
          <mxGeometry relative="1" as="geometry">
            <mxPoint x="346" y="-74" as="sourcePoint" />
            <mxPoint x="40" y="-260" as="targetPoint" />
          </mxGeometry>
        </mxCell>
        <mxCell id="m4kJft6m30RXAfEh9IQh-19" value="Υπολογισμός Κινδύνου Αναφοράς" style="ellipse;whiteSpace=wrap;html=1;" parent="1" vertex="1">
          <mxGeometry x="356.5" y="-622.5" width="140" height="70" as="geometry" />
        </mxCell>
        <mxCell id="m4kJft6m30RXAfEh9IQh-22" value="&amp;lt;&amp;lt;include&amp;gt;&amp;gt;" style="html=1;verticalAlign=bottom;labelBackgroundColor=none;endArrow=open;endFill=0;dashed=1;rounded=0;" parent="1" source="Nxb1YHYcXCWnl1iw6oOs-47" target="m4kJft6m30RXAfEh9IQh-19" edge="1">
          <mxGeometry width="160" relative="1" as="geometry">
            <mxPoint x="1073.0631876324333" y="-458.04576138379343" as="sourcePoint" />
            <mxPoint x="1117.2444162114116" y="-521.900969034803" as="targetPoint" />
          </mxGeometry>
        </mxCell>
        <mxCell id="m4kJft6m30RXAfEh9IQh-28" value="Ειδοποίηση Κοντινών&amp;nbsp;&lt;div&gt;Χρηστών&lt;/div&gt;" style="ellipse;whiteSpace=wrap;html=1;" parent="1" vertex="1">
          <mxGeometry x="670" y="-620" width="140" height="70" as="geometry" />
        </mxCell>
        <mxCell id="m4kJft6m30RXAfEh9IQh-29" value="&amp;lt;&amp;lt;include&amp;gt;&amp;gt;" style="html=1;verticalAlign=bottom;labelBackgroundColor=none;endArrow=open;endFill=0;dashed=1;rounded=0;" parent="1" source="m4kJft6m30RXAfEh9IQh-28" target="m4kJft6m30RXAfEh9IQh-32" edge="1">
          <mxGeometry width="160" relative="1" as="geometry">
            <mxPoint x="1140" y="-997" as="sourcePoint" />
            <mxPoint x="1040" y="-860" as="targetPoint" />
          </mxGeometry>
        </mxCell>
        <mxCell id="m4kJft6m30RXAfEh9IQh-30" value="&amp;lt;&amp;lt;include&amp;gt;&amp;gt;" style="html=1;verticalAlign=bottom;labelBackgroundColor=none;endArrow=open;endFill=0;dashed=1;rounded=0;" parent="1" source="m4kJft6m30RXAfEh9IQh-28" target="m4kJft6m30RXAfEh9IQh-33" edge="1">
          <mxGeometry width="160" relative="1" as="geometry">
            <mxPoint x="1191" y="-960" as="sourcePoint" />
            <mxPoint x="1150" y="-860" as="targetPoint" />
          </mxGeometry>
        </mxCell>
        <mxCell id="m4kJft6m30RXAfEh9IQh-31" value="&amp;lt;&amp;lt;include&amp;gt;&amp;gt;" style="html=1;verticalAlign=bottom;labelBackgroundColor=none;endArrow=open;endFill=0;dashed=1;rounded=0;" parent="1" source="m4kJft6m30RXAfEh9IQh-43" target="m4kJft6m30RXAfEh9IQh-34" edge="1">
          <mxGeometry width="160" relative="1" as="geometry">
            <mxPoint x="1499.9952974919368" y="-889.9976950131943" as="sourcePoint" />
            <mxPoint x="1086.0327533607779" y="-479.06960089164204" as="targetPoint" />
          </mxGeometry>
        </mxCell>
        <mxCell id="m4kJft6m30RXAfEh9IQh-32" value="Ανάκτηση τοποθεσία περιστατικού" style="ellipse;whiteSpace=wrap;html=1;" parent="1" vertex="1">
          <mxGeometry x="1190" y="-10" width="140" height="70" as="geometry" />
        </mxCell>
        <mxCell id="m4kJft6m30RXAfEh9IQh-33" value="Μετατροπή τοποθεσίας σε συντεταγμένες" style="ellipse;whiteSpace=wrap;html=1;" parent="1" vertex="1">
          <mxGeometry x="850" y="-714" width="140" height="70" as="geometry" />
        </mxCell>
        <mxCell id="m4kJft6m30RXAfEh9IQh-34" value="Υπολογισμός&amp;nbsp;&lt;div&gt;απόστασης&lt;/div&gt;&lt;div&gt;περιστατικού-χρηστών&lt;/div&gt;" style="ellipse;whiteSpace=wrap;html=1;" parent="1" vertex="1">
          <mxGeometry x="980" y="-440" width="140" height="70" as="geometry" />
        </mxCell>
        <mxCell id="m4kJft6m30RXAfEh9IQh-35" value="&amp;lt;&amp;lt;include&amp;gt;&amp;gt;" style="html=1;verticalAlign=bottom;labelBackgroundColor=none;endArrow=open;endFill=0;dashed=1;rounded=0;" parent="1" source="m4kJft6m30RXAfEh9IQh-42" target="m4kJft6m30RXAfEh9IQh-36" edge="1">
          <mxGeometry width="160" relative="1" as="geometry">
            <mxPoint x="1240" y="-640" as="sourcePoint" />
            <mxPoint x="1290" y="-610" as="targetPoint" />
          </mxGeometry>
        </mxCell>
        <mxCell id="m4kJft6m30RXAfEh9IQh-36" value="Δημιουργία και αποστολή&lt;div&gt;&amp;nbsp;Ειδοποίησης&lt;/div&gt;" style="ellipse;whiteSpace=wrap;html=1;" parent="1" vertex="1">
          <mxGeometry x="1180" y="-660" width="140" height="70" as="geometry" />
        </mxCell>
        <mxCell id="m4kJft6m30RXAfEh9IQh-38" value="&amp;lt;&amp;lt;include&amp;gt;&amp;gt;" style="html=1;verticalAlign=bottom;labelBackgroundColor=none;endArrow=open;endFill=0;dashed=1;rounded=0;" parent="1" source="m4kJft6m30RXAfEh9IQh-42" target="m4kJft6m30RXAfEh9IQh-39" edge="1">
          <mxGeometry width="160" relative="1" as="geometry">
            <mxPoint x="1390" y="-650" as="sourcePoint" />
            <mxPoint x="1480" y="-640" as="targetPoint" />
          </mxGeometry>
        </mxCell>
        <mxCell id="m4kJft6m30RXAfEh9IQh-39" value="Φιλτράρισμα Χρηστών με push ενεργό" style="ellipse;whiteSpace=wrap;html=1;" parent="1" vertex="1">
          <mxGeometry x="1375" y="-410" width="140" height="70" as="geometry" />
        </mxCell>
        <mxCell id="m4kJft6m30RXAfEh9IQh-41" value="&amp;lt;&amp;lt;include&amp;gt;&amp;gt;" style="html=1;verticalAlign=bottom;labelBackgroundColor=none;endArrow=open;endFill=0;dashed=1;rounded=0;" parent="1" source="m4kJft6m30RXAfEh9IQh-34" target="m4kJft6m30RXAfEh9IQh-42" edge="1">
          <mxGeometry width="160" relative="1" as="geometry">
            <mxPoint x="1113.6644673653936" y="-472.3560518433951" as="sourcePoint" />
            <mxPoint x="1265" y="-473" as="targetPoint" />
          </mxGeometry>
        </mxCell>
        <mxCell id="m4kJft6m30RXAfEh9IQh-42" value="Επιλογή Χρηστών Εντός Προκαθορισμένης Ακτίνας" style="ellipse;whiteSpace=wrap;html=1;" parent="1" vertex="1">
          <mxGeometry x="1160" y="-320" width="145" height="70" as="geometry" />
        </mxCell>
        <mxCell id="m4kJft6m30RXAfEh9IQh-43" value="Εντοπισμός Χρηστών με ενεργό GPS" style="ellipse;whiteSpace=wrap;html=1;" parent="1" vertex="1">
          <mxGeometry x="950" y="-590" width="140" height="70" as="geometry" />
        </mxCell>
        <mxCell id="m4kJft6m30RXAfEh9IQh-44" value="&amp;lt;&amp;lt;include&amp;gt;&amp;gt;" style="html=1;verticalAlign=bottom;labelBackgroundColor=none;endArrow=open;endFill=0;dashed=1;rounded=0;" parent="1" source="m4kJft6m30RXAfEh9IQh-28" target="m4kJft6m30RXAfEh9IQh-43" edge="1">
          <mxGeometry width="160" relative="1" as="geometry">
            <mxPoint x="1350" y="-1100" as="sourcePoint" />
            <mxPoint x="1415" y="-1023" as="targetPoint" />
          </mxGeometry>
        </mxCell>
        <mxCell id="m4kJft6m30RXAfEh9IQh-45" style="edgeStyle=orthogonalEdgeStyle;rounded=0;orthogonalLoop=1;jettySize=auto;html=1;exitX=0.5;exitY=1;exitDx=0;exitDy=0;" parent="1" edge="1">
          <mxGeometry relative="1" as="geometry">
            <mxPoint x="1070" y="-410" as="sourcePoint" />
            <mxPoint x="1070" y="-410" as="targetPoint" />
          </mxGeometry>
        </mxCell>
        <mxCell id="m4kJft6m30RXAfEh9IQh-46" value="&amp;lt;&amp;lt;extend&amp;gt;&amp;gt;" style="html=1;verticalAlign=bottom;labelBackgroundColor=none;endArrow=open;endFill=0;dashed=1;rounded=0;" parent="1" source="m4kJft6m30RXAfEh9IQh-47" target="m4kJft6m30RXAfEh9IQh-42" edge="1">
          <mxGeometry width="160" relative="1" as="geometry">
            <mxPoint x="1310" y="-480" as="sourcePoint" />
            <mxPoint x="1230" y="-350" as="targetPoint" />
          </mxGeometry>
        </mxCell>
        <mxCell id="m4kJft6m30RXAfEh9IQh-47" value="Αποτυχία Αποστολής Ειδοποίησης" style="ellipse;whiteSpace=wrap;html=1;" parent="1" vertex="1">
          <mxGeometry x="1350" y="-610" width="140" height="70" as="geometry" />
        </mxCell>
        <mxCell id="m4kJft6m30RXAfEh9IQh-49" value="&amp;lt;&amp;lt;include&amp;gt;&amp;gt;" style="html=1;verticalAlign=bottom;labelBackgroundColor=none;endArrow=open;endFill=0;dashed=1;rounded=0;" parent="1" source="m4kJft6m30RXAfEh9IQh-19" target="m4kJft6m30RXAfEh9IQh-28" edge="1">
          <mxGeometry width="160" relative="1" as="geometry">
            <mxPoint x="876" y="-566" as="sourcePoint" />
            <mxPoint x="1134" y="-664" as="targetPoint" />
          </mxGeometry>
        </mxCell>
        <mxCell id="m4kJft6m30RXAfEh9IQh-50" value="&amp;lt;&amp;lt;include&amp;gt;&amp;gt;" style="html=1;verticalAlign=bottom;labelBackgroundColor=none;endArrow=open;endFill=0;dashed=1;rounded=0;" parent="1" source="m4kJft6m30RXAfEh9IQh-7" target="Nxb1YHYcXCWnl1iw6oOs-47" edge="1">
          <mxGeometry width="160" relative="1" as="geometry">
            <mxPoint x="480" y="-415" as="sourcePoint" />
            <mxPoint x="656" y="-429" as="targetPoint" />
          </mxGeometry>
        </mxCell>
        <mxCell id="m4kJft6m30RXAfEh9IQh-70" value="Ειδοποίηση Αρχής για Υψηλό Κίνδυνο" style="shape=ellipse;whiteSpace=wrap;html=1;" parent="1" vertex="1">
          <mxGeometry x="-220" y="-572.5" width="180" height="80" as="geometry" />
        </mxCell>
        <mxCell id="m4kJft6m30RXAfEh9IQh-72" value="Έλεγχος υπέρβασης κατωφλίου" style="shape=ellipse;whiteSpace=wrap;html=1;" parent="1" vertex="1">
          <mxGeometry x="-190" y="-360" width="140" height="80" as="geometry" />
        </mxCell>
        <mxCell id="m4kJft6m30RXAfEh9IQh-73" value="Ανάκτηση κατηγορίας κινδύνου" style="shape=ellipse;whiteSpace=wrap;html=1;" parent="1" vertex="1">
          <mxGeometry x="-720" y="-480" width="130" height="90" as="geometry" />
        </mxCell>
        <mxCell id="m4kJft6m30RXAfEh9IQh-74" value="Επιλογή αρμόδιας υπηρεσίας" style="shape=ellipse;whiteSpace=wrap;html=1;" parent="1" vertex="1">
          <mxGeometry x="-910" y="-290" width="150" height="80" as="geometry" />
        </mxCell>
        <mxCell id="m4kJft6m30RXAfEh9IQh-75" value="Αποστολή ειδοποίησης" style="shape=ellipse;whiteSpace=wrap;html=1;" parent="1" vertex="1">
          <mxGeometry x="-462.75" y="-390" width="140" height="80" as="geometry" />
        </mxCell>
        <mxCell id="m4kJft6m30RXAfEh9IQh-77" value="Αποστολή σε Default Αρχή (112)" style="shape=ellipse;whiteSpace=wrap;html=1;" parent="1" vertex="1">
          <mxGeometry x="-650" y="-265" width="140" height="80" as="geometry" />
        </mxCell>
        <mxCell id="m4kJft6m30RXAfEh9IQh-79" value="&lt;&lt;include&gt;&gt;" style="endArrow=block;dashed=1;exitX=0.222;exitY=0.927;exitDx=0;exitDy=0;exitPerimeter=0;" parent="1" source="m4kJft6m30RXAfEh9IQh-70" target="m4kJft6m30RXAfEh9IQh-72" edge="1">
          <mxGeometry relative="1" as="geometry" />
        </mxCell>
        <mxCell id="m4kJft6m30RXAfEh9IQh-80" value="&lt;&lt;include&gt;&gt;" style="endArrow=block;dashed=1;" parent="1" source="m4kJft6m30RXAfEh9IQh-70" target="m4kJft6m30RXAfEh9IQh-73" edge="1">
          <mxGeometry relative="1" as="geometry" />
        </mxCell>
        <mxCell id="m4kJft6m30RXAfEh9IQh-81" value="&lt;&lt;include&gt;&gt;" style="endArrow=block;dashed=1;" parent="1" source="m4kJft6m30RXAfEh9IQh-73" target="m4kJft6m30RXAfEh9IQh-74" edge="1">
          <mxGeometry relative="1" as="geometry" />
        </mxCell>
        <mxCell id="m4kJft6m30RXAfEh9IQh-82" value="&lt;&lt;include&gt;&gt;" style="endArrow=block;dashed=1;" parent="1" source="m4kJft6m30RXAfEh9IQh-70" target="m4kJft6m30RXAfEh9IQh-75" edge="1">
          <mxGeometry relative="1" as="geometry" />
        </mxCell>
        <mxCell id="m4kJft6m30RXAfEh9IQh-84" value="&lt;&lt;extend&gt;&gt;" style="endArrow=block;dashed=1;" parent="1" source="m4kJft6m30RXAfEh9IQh-77" target="m4kJft6m30RXAfEh9IQh-73" edge="1">
          <mxGeometry relative="1" as="geometry">
            <mxPoint x="-260" y="-392.5" as="sourcePoint" />
          </mxGeometry>
        </mxCell>
        <mxCell id="m4kJft6m30RXAfEh9IQh-86" value="&lt;&lt;include&gt;&gt;" style="endArrow=block;dashed=1;" parent="1" source="m4kJft6m30RXAfEh9IQh-19" target="m4kJft6m30RXAfEh9IQh-70" edge="1">
          <mxGeometry relative="1" as="geometry">
            <mxPoint x="180" y="-455" as="sourcePoint" />
            <mxPoint x="115" y="-625" as="targetPoint" />
          </mxGeometry>
        </mxCell>
        <mxCell id="m4kJft6m30RXAfEh9IQh-94" value="" style="endArrow=none;html=1;rounded=0;exitX=0.172;exitY=0.364;exitDx=0;exitDy=0;exitPerimeter=0;" parent="1" source="m4kJft6m30RXAfEh9IQh-2" target="m4kJft6m30RXAfEh9IQh-3" edge="1">
          <mxGeometry width="50" height="50" relative="1" as="geometry">
            <mxPoint x="1560" y="-179" as="sourcePoint" />
            <mxPoint x="800" y="-551" as="targetPoint" />
            <Array as="points" />
          </mxGeometry>
        </mxCell>
        <mxCell id="m4kJft6m30RXAfEh9IQh-96" value="" style="endArrow=none;html=1;rounded=0;entryX=0.5;entryY=1;entryDx=0;entryDy=0;" parent="1" target="m4kJft6m30RXAfEh9IQh-32" edge="1">
          <mxGeometry width="50" height="50" relative="1" as="geometry">
            <mxPoint x="1680" y="460" as="sourcePoint" />
            <mxPoint x="1050" y="205" as="targetPoint" />
            <Array as="points" />
          </mxGeometry>
        </mxCell>
        <mxCell id="m4kJft6m30RXAfEh9IQh-97" value="" style="endArrow=none;html=1;rounded=0;" parent="1" target="Nxb1YHYcXCWnl1iw6oOs-47" edge="1">
          <mxGeometry width="50" height="50" relative="1" as="geometry">
            <mxPoint x="1680" y="460" as="sourcePoint" />
            <mxPoint x="1060" y="215" as="targetPoint" />
            <Array as="points" />
          </mxGeometry>
        </mxCell>
      </root>
    </mxGraphModel>
  </diagram>
</mxfile>
